<svg width="9" height="7" viewBox="0 0 9 7" fill="none" xmlns="http://www.w3.org/2000/svg">
<path d="M4.4994 1.86539C4.25072 1.46786 3.84111 1.17778 3.3607 1.05898C2.88028 0.940174 2.3684 1.00237 1.93767 1.23188C1.50693 1.4614 1.19263 1.83943 1.0639 2.28282C0.935177 2.7262 1.00257 3.19863 1.25125 3.59616" stroke="#FF0000" stroke-width="0.5" stroke-linecap="round"/>
<path d="M4.5006 1.86539C4.74928 1.46786 5.15888 1.17778 5.6393 1.05898C6.11972 0.940174 6.6316 1.00237 7.06233 1.23188C7.49307 1.4614 7.80737 1.83943 7.9361 2.28282C8.06482 2.7262 7.99743 3.19863 7.74875 3.59616" stroke="#FF0000" stroke-width="0.5" stroke-linecap="round" stroke-linejoin="bevel"/>
<line x1="0.25" y1="-0.25" x2="4.50303" y2="-0.25" transform="matrix(0.710195 0.704005 -0.758459 0.651721 1.12503 3.65384)" stroke="#FF0000" stroke-width="0.5" stroke-linecap="round"/>
<line x1="0.25" y1="-0.25" x2="4.50481" y2="-0.25" transform="matrix(0.710456 -0.703742 0.758221 0.651998 4.50061 7)" stroke="#FF0000" stroke-width="0.5" stroke-linecap="round"/>
<path d="M2.5302 1.32721C2.42734 1.32972 2.38146 1.38739 2.31267 1.45619C2.26218 1.50667 2.15647 1.60353 2.08937 1.6227C1.99884 1.64857 1.97459 1.79942 1.91515 1.84697C1.8463 1.90204 1.85165 2.09596 1.81601 2.17615C1.76281 2.29586 1.76789 2.40561 1.76789 2.53997C1.76789 2.66414 1.76789 2.7883 1.76789 2.91247C1.76789 2.93593 1.75502 3.06967 1.77751 3.07609C1.83542 3.09264 1.88893 3.12457 1.94884 3.14636C2.02216 3.17302 2.08377 3.25166 2.14904 3.29362C2.24704 3.35662 2.33061 3.43548 2.42528 3.50056C2.51721 3.56376 2.59102 3.64316 2.67746 3.71039C2.73143 3.75237 2.75147 3.7894 2.66014 3.7691C2.60822 3.75757 2.56493 3.73848 2.51287 3.73541C2.46168 3.7324 2.44518 3.64972 2.4994 3.75274C2.57225 3.89116 2.64904 4.02755 2.71692 4.16855C2.76559 4.26963 2.80474 4.37498 2.88055 4.45922C3.06958 4.66926 3.32193 4.79283 3.51773 5.00016C3.56084 5.0458 3.59266 5.09804 3.63227 5.14646C3.70348 5.23349 3.80409 5.30274 3.87194 5.38997C3.93128 5.46627 4.0312 5.57627 4.11449 5.62386C4.20325 5.67458 4.2753 5.77513 4.35801 5.83947C4.37648 5.85384 4.4533 5.94855 4.4533 5.87508C4.4533 5.70286 4.44703 5.53345 4.42635 5.36206C4.38894 5.05211 4.35762 4.76523 4.28004 4.46307C4.25238 4.35534 4.23517 4.24298 4.21459 4.13389C4.20232 4.06883 4.17804 4.00962 4.17609 3.94332C4.17184 3.79888 4.14549 3.68299 4.20689 3.54484C4.22633 3.5011 4.21074 3.41922 4.21074 3.37159C4.21074 3.26763 4.21074 3.16368 4.21074 3.05973C4.21074 2.85981 4.23852 2.67051 4.28101 2.47934C4.33693 2.22766 4.15661 2.11205 3.98166 1.97209C3.93804 1.93719 3.86347 1.87927 3.81226 1.85082C3.78036 1.83309 3.71445 1.74439 3.69099 1.74301C3.58861 1.73699 3.48819 1.68878 3.39646 1.64291C3.3279 1.60863 3.12493 1.52369 3.06728 1.59575C2.92563 1.77281 2.85781 2.0142 2.78141 2.22812C2.66645 2.55 2.57287 2.88424 2.43587 3.19737C2.42796 3.21545 2.39296 3.29049 2.41854 3.23202C2.45431 3.15028 2.52792 3.07933 2.58987 3.01738C2.69209 2.91517 2.82998 2.82659 2.91905 2.71323C3.00485 2.60403 3.14745 2.50771 3.25786 2.42255C3.28835 2.39902 3.32727 2.35127 3.36181 2.33592C3.39022 2.32329 3.42283 2.42011 3.43496 2.43987C3.55841 2.64106 3.70768 2.85559 3.75644 3.09053C3.79527 3.27763 3.82959 3.47467 3.82959 3.66611C3.82959 3.82747 3.8378 4.00389 3.76414 4.15122C3.7009 4.27769 3.55369 4.09006 3.49271 4.02994C3.34598 3.88528 3.16425 3.75588 3.1231 3.54099C3.09588 3.39881 3.10193 3.24842 3.10193 3.10401C3.10193 3.07138 3.10034 3.05356 3.12888 3.07802C3.17412 3.1168 3.21701 3.13807 3.26652 3.17235C3.43311 3.28768 3.62099 3.34433 3.82285 3.3533C4.19725 3.36994 4.56929 3.35513 4.90279 3.16272C5.00589 3.10324 5.09992 3.03868 5.19828 2.97311C5.262 2.93063 5.33229 2.90557 5.38886 2.85183C5.46527 2.77924 5.45816 2.72061 5.45816 2.6189C5.45816 2.42269 5.44083 2.22918 5.44083 2.03369C5.44083 1.98185 5.43891 1.92958 5.44083 1.87777C5.44264 1.82893 5.47342 1.80308 5.41003 1.84697C5.28335 1.93467 5.2091 2.04429 5.06834 2.10684C5.00143 2.13658 4.97841 2.17079 4.92974 2.21946C4.85265 2.29654 4.91973 2.19289 4.9461 2.16652C5.07919 2.03343 5.21255 1.88688 5.36287 1.76997C5.44525 1.70589 5.5412 1.64704 5.63237 1.59575C5.70127 1.55699 5.78469 1.46581 5.8653 1.46581C5.99596 1.46581 6.12953 1.44849 6.25512 1.44849C6.36092 1.44849 6.50657 1.43704 6.60162 1.47929C6.6593 1.50492 6.7344 1.49041 6.78835 1.53896C6.83252 1.57872 6.92958 1.6383 6.98663 1.66024C7.13678 1.71799 7.16507 1.87485 7.22533 2.00289C7.25941 2.07531 7.32985 2.17005 7.34661 2.24545C7.3616 2.31291 7.43323 2.37197 7.43323 2.44469C7.43323 2.57224 7.46788 2.7089 7.46788 2.84317C7.46788 2.90329 7.43131 3.01017 7.39858 3.06743C7.36928 3.11871 7.29298 3.14801 7.25132 3.18967C7.1989 3.24209 7.12028 3.28292 7.06074 3.32923C6.9502 3.41521 6.84158 3.49356 6.71424 3.55446C6.53173 3.64175 6.39508 3.835 6.31094 4.01262C6.27454 4.08947 6.27322 4.14891 6.20892 4.21475C6.1156 4.31028 6.03536 4.41516 5.93364 4.5035C5.7741 4.64205 5.60004 4.75636 5.44853 4.90583C5.31063 5.04187 5.10377 5.21473 5.02503 5.3919C4.99328 5.46332 4.94629 5.4754 4.90375 5.52857C4.83957 5.6088 4.8691 5.47255 4.8691 5.44965C4.8691 5.21319 4.8691 4.97673 4.8691 4.74028C4.8691 4.55122 4.85777 4.36063 4.9076 4.17625C4.92618 4.10751 4.9749 4.04311 5.00385 3.97797C5.04781 3.87907 5.04236 3.75272 5.09433 3.64879C5.22074 3.39597 5.49983 3.21824 5.75654 3.11556C5.88219 3.06529 5.93463 2.97931 5.99524 2.86145C6.03463 2.78487 6.08732 2.69727 6.11652 2.61698C6.14936 2.52665 6.15533 2.44601 6.16753 2.34843C6.17511 2.28781 6.18582 2.23105 6.18582 2.16941C6.18582 2.11517 6.17556 2.14746 6.19544 2.15882C6.27195 2.20254 6.32466 2.26818 6.39372 2.32245C6.50779 2.41208 6.55572 2.5335 6.61028 2.65355C6.69414 2.83803 6.568 2.86803 6.42741 2.94712C6.24048 3.05227 6.15363 3.23121 6.02604 3.39661C5.88958 3.5735 5.77867 3.7662 5.66991 3.96064C5.59838 4.08853 5.44529 4.28144 5.29838 4.33795C5.19547 4.37753 5.12131 4.47278 5.02503 4.52852C4.95064 4.57159 4.86728 4.61756 4.80365 4.67483C4.763 4.71141 4.74782 4.74223 4.74782 4.6883" stroke="#FF0000" stroke-linecap="round" stroke-linejoin="round"/>
<path d="M1.31744 3.02508C1.31744 2.89015 1.30011 2.77707 1.30011 2.64392" stroke="#FF0000" stroke-linecap="round" stroke-linejoin="round"/>
</svg>
