<svg width="16" height="14" viewBox="0 0 16 14" fill="none" xmlns="http://www.w3.org/2000/svg">
<path d="M1 12.0746C1.47288 11.9623 1.91924 11.7568 2.31362 11.47C2.708 11.1832 3.04266 10.8206 3.2985 10.403" stroke="white" stroke-width="0.5" stroke-linecap="round"/>
<path d="M1 12.0715C1.55855 12.3819 2.25915 12.5294 2.96212 12.4846C3.6651 12.4399 4.07809 12.2417 4.55223 11.8656" stroke="white" stroke-width="0.5" stroke-linecap="round"/>
<path d="M4.38072 11.7818C5.52433 12.8842 7.04383 13.5114 8.6321 13.5365C10.2204 13.5617 11.7589 12.9829 12.9369 11.9172C14.1148 10.8515 14.8443 9.3784 14.9778 7.79556C15.1113 6.21272 14.6389 4.63821 13.6561 3.39027C12.6734 2.14232 11.2535 1.31401 9.68342 1.07275C8.11339 0.831484 6.51031 1.19526 5.19818 2.09055C3.88605 2.98583 2.96274 4.34587 2.61485 5.89577C2.26696 7.44567 2.52044 9.06984 3.32406 10.44" stroke="white" stroke-width="0.5"/>
</svg>
