<svg width="16" height="13" viewBox="0 0 16 13" fill="none" xmlns="http://www.w3.org/2000/svg">
<path d="M7.9988 2.73078C7.50144 1.93572 6.68223 1.35557 5.72139 1.11796C4.76055 0.880347 3.7368 1.00474 2.87533 1.46377C2.01387 1.92279 1.38527 2.67886 1.12781 3.56563C0.870354 4.45241 1.00513 5.39725 1.5025 6.19232" stroke="white" stroke-width="0.5" stroke-linecap="round"/>
<path d="M8.0012 2.73078C8.49856 1.93572 9.31777 1.35557 10.2786 1.11796C11.2394 0.880347 12.2632 1.00474 13.1247 1.46377C13.9861 1.92279 14.6147 2.67886 14.8722 3.56563C15.1296 4.45241 14.9949 5.39725 14.4975 6.19232" stroke="white" stroke-width="0.5" stroke-linecap="round" stroke-linejoin="bevel"/>
<line x1="0.25" y1="-0.25" x2="9.25605" y2="-0.25" transform="matrix(0.710195 0.704005 -0.758459 0.651721 1.25 6.30774)" stroke="white" stroke-width="0.5" stroke-linecap="round"/>
<line x1="0.25" y1="-0.25" x2="9.25961" y2="-0.25" transform="matrix(0.710456 -0.703742 0.758221 0.651998 8.00122 13)" stroke="white" stroke-width="0.5" stroke-linecap="round"/>
</svg>
