<svg width="41" height="36" viewBox="0 0 41 36" fill="none" xmlns="http://www.w3.org/2000/svg">
<path d="M5.30584 19.3645C4.51661 22.7397 4.07713 26.3434 4.00928 30H20.5L36.9907 30C36.9229 26.3434 36.4834 22.7397 35.6942 19.3645C34.8328 15.6807 33.5748 12.3547 32.0035 9.57128C30.431 6.78562 28.589 4.62145 26.6054 3.16598C24.6277 1.71486 22.5552 1 20.5 1C18.4448 1 16.3723 1.71486 14.3946 3.16598C12.411 4.62145 10.569 6.78562 8.99645 9.57128C7.42516 12.3547 6.16723 15.6807 5.30584 19.3645Z" stroke="url(#paint0_linear)" stroke-width="2"/>
<path d="M24 31C24 31.4596 23.9095 31.9148 23.7336 32.3394C23.5577 32.764 23.2999 33.1499 22.9749 33.4749C22.6499 33.7999 22.264 34.0577 21.8394 34.2336C21.4148 34.4095 20.9596 34.5 20.5 34.5C20.0404 34.5 19.5852 34.4095 19.1606 34.2336C18.736 34.0577 18.3501 33.7999 18.0251 33.4749C17.7001 33.1499 17.4423 32.764 17.2664 32.3394C17.0905 31.9148 17 31.4596 17 31" stroke="url(#paint1_linear)" stroke-width="2"/>
<line x1="1" y1="30" x2="40" y2="30" stroke="#F8883E" stroke-width="2" stroke-linecap="round"/>
<defs>
<linearGradient id="paint0_linear" x1="20.5" y1="0" x2="20.5" y2="31" gradientUnits="userSpaceOnUse">
<stop stop-color="#EE3A2C"/>
<stop offset="0.9999" stop-color="#F8883E"/>
<stop offset="1" stop-color="#FCAC46"/>
</linearGradient>
<linearGradient id="paint1_linear" x1="20.5" y1="31" x2="20.5" y2="34.5" gradientUnits="userSpaceOnUse">
<stop stop-color="#F77E56"/>
<stop offset="1" stop-color="#FCAC46"/>
</linearGradient>
</defs>
</svg>
