<svg width="40" height="40" viewBox="0 0 40 40" fill="none" xmlns="http://www.w3.org/2000/svg">
<path d="M37.3913 15.6522H34.1357C33.8626 14.7609 33.5052 13.9 33.0713 13.08L35.3713 10.78C35.8635 10.2878 36.1348 9.63217 36.1348 8.93391C36.1348 8.23652 35.8635 7.58087 35.3713 7.0887L32.9104 4.62783C31.927 3.64435 30.2052 3.64174 29.22 4.62783L26.92 6.92783C26.1009 6.49391 25.2391 6.13739 24.3478 5.86348V2.6087C24.3478 1.17043 23.1774 0 21.7391 0H18.2609C16.8226 0 15.6522 1.17043 15.6522 2.6087V5.86435C14.7609 6.13826 13.9 6.49478 13.08 6.9287L10.7791 4.6287C9.76174 3.6113 8.10609 3.6113 7.0887 4.6287L4.62696 7.08956C3.61043 8.10696 3.61043 9.76261 4.62696 10.78L6.92696 13.0809C6.49304 13.9 6.13652 14.7617 5.86261 15.653H2.6087C1.17043 15.653 0 16.8235 0 18.2617V21.74C0 23.1774 1.17043 24.3478 2.6087 24.3478H5.86435C6.13826 25.2391 6.49478 26.1 6.9287 26.92L4.6287 29.2209C3.6113 30.2383 3.6113 31.8939 4.6287 32.9113L7.08956 35.373C8.10696 36.3896 9.76261 36.3896 10.78 35.373L13.0809 33.073C13.9 33.507 14.7617 33.8635 15.653 34.1374V37.3913C15.653 38.8296 16.8235 40 18.2617 40H21.74C23.1783 40 24.3487 38.8296 24.3487 37.3913V34.1357C25.24 33.8617 26.1017 33.5052 26.9209 33.0713L29.2209 35.3722C30.207 36.3574 31.9287 36.3557 32.9113 35.3722L35.3722 32.9113C35.8643 32.4191 36.1357 31.7635 36.1357 31.0661C36.1357 30.3678 35.8643 29.713 35.3722 29.2209L33.0722 26.92C33.5061 26.1009 33.8626 25.2391 34.1365 24.3478H37.3913C38.8296 24.3478 40 23.1774 40 21.7391V18.2609C40 16.8226 38.8296 15.6522 37.3913 15.6522ZM38.2609 21.7391C38.2609 22.2183 37.8713 22.6087 37.3913 22.6087H33.4783C33.0817 22.6087 32.7357 22.8774 32.6365 23.2609C32.3287 24.4478 31.86 25.5809 31.2417 26.6278C31.0409 26.9696 31.0957 27.4043 31.3757 27.6843L34.1409 30.4504C34.3043 30.6139 34.3948 30.8322 34.3948 31.0661C34.3948 31.3 34.3043 31.5183 34.1409 31.6817L31.68 34.1426C31.353 34.4696 30.7765 34.4696 30.4487 34.1426L27.6835 31.3774C27.4035 31.0965 26.9687 31.0426 26.6261 31.2435C25.5809 31.8609 24.4478 32.3304 23.26 32.6374C22.8774 32.7357 22.6087 33.0817 22.6087 33.4783V37.3913C22.6087 37.8704 22.2191 38.2609 21.7391 38.2609H18.2609C17.7817 38.2609 17.3913 37.8704 17.3913 37.3913V33.4783C17.3913 33.0817 17.1226 32.7357 16.7391 32.6365C15.5522 32.3296 14.4191 31.8609 13.3722 31.2426C13.2348 31.1609 13.0826 31.1217 12.9304 31.1217C12.7052 31.1217 12.4826 31.2087 12.3148 31.3765L9.54957 34.1417C9.20957 34.4809 8.65826 34.4809 8.31826 34.1417L5.85739 31.6809C5.51739 31.3409 5.51739 30.7887 5.85739 30.4496L8.62261 27.6843C8.90348 27.4035 8.95826 26.9687 8.75652 26.6278C8.13913 25.5809 7.66956 24.4487 7.36261 23.2609C7.26435 22.8774 6.91826 22.6087 6.52174 22.6087H2.6087C2.12957 22.6087 1.73913 22.2183 1.73913 21.7391V18.2609C1.73913 17.7817 2.12957 17.3913 2.6087 17.3913H6.52174C6.91826 17.3913 7.26435 17.1226 7.36348 16.7391C7.67043 15.5522 8.13913 14.4191 8.75739 13.3722C8.95913 13.0304 8.90435 12.5957 8.62348 12.3157L5.85826 9.55043C5.51913 9.2113 5.51913 8.65913 5.85826 8.31913L8.31913 5.85826C8.65913 5.51826 9.21043 5.51913 9.55043 5.85826L12.3157 8.62348C12.5965 8.90435 13.0304 8.96 13.3722 8.75739C14.4191 8.14 15.5513 7.67043 16.7391 7.36348C17.1226 7.26435 17.3913 6.91826 17.3913 6.52174V2.6087C17.3913 2.12957 17.7817 1.73913 18.2609 1.73913H21.7391C22.2191 1.73913 22.6087 2.12957 22.6087 2.6087V6.52174C22.6087 6.91826 22.8774 7.26435 23.2609 7.36348C24.4487 7.67043 25.5817 8.14 26.627 8.75739C26.9696 8.95913 27.4043 8.90522 27.6843 8.62348L30.4496 5.85826C30.7774 5.52957 31.3539 5.53043 31.6809 5.85826L34.1417 8.31913C34.3052 8.48261 34.3957 8.70174 34.3957 8.93478C34.3957 9.16783 34.3052 9.38696 34.1417 9.55043L31.3765 12.3157C31.0965 12.5965 31.0409 13.0313 31.2426 13.3722C31.8609 14.4191 32.3296 15.5513 32.6374 16.7391C32.7357 17.1226 33.0817 17.3913 33.4783 17.3913H37.3913C37.8713 17.3913 38.2609 17.7817 38.2609 18.2609V21.7391V21.7391Z" fill="url(#paint0_linear)"/>
<path d="M20 12.1739C15.6852 12.1739 12.1739 15.6852 12.1739 20C12.1739 24.3148 15.6852 27.8261 20 27.8261C24.3156 27.8261 27.8261 24.3148 27.8261 20C27.8261 15.6852 24.3156 12.1739 20 12.1739ZM20 26.087C16.6435 26.087 13.913 23.3565 13.913 20C13.913 16.6435 16.6435 13.9131 20 13.9131C23.3556 13.9131 26.0869 16.6435 26.0869 20C26.0869 23.3565 23.3556 26.087 20 26.087Z" fill="url(#paint1_linear)"/>
<defs>
<linearGradient id="paint0_linear" x1="20" y1="0" x2="20" y2="40" gradientUnits="userSpaceOnUse">
<stop stop-color="#FCAC46"/>
<stop offset="1" stop-color="#E2336B"/>
</linearGradient>
<linearGradient id="paint1_linear" x1="20" y1="12.1739" x2="20" y2="27.8261" gradientUnits="userSpaceOnUse">
<stop stop-color="#FCAC46"/>
<stop offset="1" stop-color="#E2336B"/>
</linearGradient>
</defs>
</svg>
